<?xml version="1.0" encoding="iso-8859-1"?>
<!-- Generator: Adobe Illustrator 19.0.0, SVG Export Plug-In . SVG Version: 6.00 Build 0)  -->
<svg version="1.1" id="Layer_1" xmlns="http://www.w3.org/2000/svg" xmlns:xlink="http://www.w3.org/1999/xlink" x="0px" y="0px"
	 viewBox="0 0 512 512" style="enable-background:new 0 0 512 512;" xml:space="preserve">
<circle style="fill:#273B7A;" cx="256" cy="256" r="256"/>
<path style="fill:#121149;" d="M297.903,508.568c113.367-18.668,201.63-111.8,212.875-227.502L401.525,171.813l-85.202,65.21
	l-8.221-8.223l-10.988,2.836l-66.974-66.974l-15.369,24.535l53.212,51.348L79.238,290.538L297.903,508.568z"/>
<path style="fill:#FF6262;" d="M91.367,224.539c0-45.463,36.854-82.316,82.316-82.316S256,179.076,256,224.539
	c0-45.463,36.854-82.316,82.316-82.316s82.316,36.854,82.316,82.316C420.633,328.806,256,416.151,256,416.151
	S91.367,323.817,91.367,224.539z"/>
<path style="fill:#FF314F;" d="M420.633,224.539c0-45.463-36.854-82.316-82.316-82.316c-45.456,0-82.304,36.843-82.316,82.296
	v191.633C256.022,416.139,420.633,328.799,420.633,224.539z"/>
<path style="fill:#FFFFFF;" d="M255.998,349.953c-3.256,0-6.244-1.838-7.708-4.765l-49.18-98.357l-20.735,41.47
	c-1.46,2.919-4.446,4.763-7.709,4.763H85.333c-4.761,0-8.62-3.858-8.62-8.62s3.858-8.62,8.62-8.62h80.006l26.062-52.124
	c1.46-2.919,4.444-4.765,7.709-4.765c3.265,0,6.249,1.845,7.709,4.765l48.538,97.077l28.91-68.143
	c1.212-2.858,3.87-4.844,6.956-5.198c3.077-0.357,6.123,0.981,7.949,3.494l18.103,24.893h109.39c4.761,0,8.62,3.858,8.62,8.62
	s-3.858,8.62-8.62,8.62H312.889c-2.758,0-5.349-1.321-6.971-3.551l-11.729-16.125L263.933,344.7
	c-1.314,3.094-4.305,5.142-7.664,5.249C256.178,349.951,256.088,349.953,255.998,349.953z"/>
<path style="fill:#D0D1D3;" d="M426.667,275.825H317.278l-18.104-24.893c-1.827-2.513-4.872-3.851-7.949-3.494
	c-3.086,0.353-5.744,2.338-6.956,5.198L256,319.264v30.689c0.09,0,0.179-0.002,0.269-0.003c3.36-0.107,6.353-2.155,7.664-5.249
	l30.255-71.313l11.729,16.125c1.622,2.231,4.213,3.551,6.971,3.551h113.778c4.761,0,8.62-3.858,8.62-8.62
	S431.426,275.825,426.667,275.825z"/>
<g>
</g>
<g>
</g>
<g>
</g>
<g>
</g>
<g>
</g>
<g>
</g>
<g>
</g>
<g>
</g>
<g>
</g>
<g>
</g>
<g>
</g>
<g>
</g>
<g>
</g>
<g>
</g>
<g>
</g>
</svg>
